HIERARCHY
ROOT Hips
{
  OFFSET 3.00422 94.3247 59.8075
  CHANNELS 6 Xposition Yposition Zposition Zrotation Xrotation Yrotation
  JOINT RightUpLeg
  {
    OFFSET -8.9458 -8.66707 0.101652
    CHANNELS 3 Zrotation Xrotation Yrotation
    JOINT RightLeg
    {
      OFFSET 0 -44.4227 1.3727
      CHANNELS 3 Zrotation Xrotation Yrotation
      JOINT RightFoot
      {
        OFFSET 0.253549 -42.0924 -1.46059
        CHANNELS 3 Zrotation Xrotation Yrotation
        JOINT RightToes
        {
          OFFSET 0.04 -4.41509 8.4991
          CHANNELS 3 Zrotation Xrotation Yrotation
          End Site
          {
            OFFSET -0.08 -0.137448 9.77979
          }
        }
      }
    }
  }
  JOINT Spine
  {
    OFFSET 0 11.8905 0
    CHANNELS 3 Zrotation Xrotation Yrotation
    JOINT Spine1
    {
      OFFSET 0 25.6574 0.127663
      CHANNELS 3 Zrotation Xrotation Yrotation
      JOINT HEad
      {
        OFFSET 0 8.73416 0.011341
        CHANNELS 3 Zrotation Xrotation Yrotation
        End Site
        {
          OFFSET -0.29 12.7742 2.51395
        }
      }
      JOINT LeftShoulder1
      {
        OFFSET 8.99 -0.362252 -0.22
        CHANNELS 3 Zrotation Xrotation Yrotation
        JOINT LeftArm
        {
          OFFSET 10.2827 -0.00338 0.322123
          CHANNELS 3 Zrotation Xrotation Yrotation
          JOINT LeftForeArm
          {
            OFFSET 32.7669 0.099144 -1.42434
            CHANNELS 3 Zrotation Xrotation Yrotation
            JOINT LeftHand
            {
              OFFSET 27.5643 0.085362 1.02216
              CHANNELS 3 Zrotation Xrotation Yrotation
              End Site
              {
                OFFSET 16.7443 -0.6 1.50291
              }
            }
          }
        }
      }
      JOINT RightShoulder
      {
        OFFSET -8.99 -0.362252 -0.22
        CHANNELS 3 Zrotation Xrotation Yrotation
        JOINT RightArm
        {
          OFFSET -10.2827 -0.00338 0.322123
          CHANNELS 3 Zrotation Xrotation Yrotation
          JOINT RightForeArm
          {
            OFFSET -32.8971 0.099144 -1.42434
            CHANNELS 3 Zrotation Xrotation Yrotation
            JOINT RightHand
            {
              OFFSET -27.4921 0.085362 1.02216
              CHANNELS 3 Zrotation Xrotation Yrotation
              End Site
              {
                OFFSET -16.6312 -0.6 1.50291
              }
            }
          }
        }
      }
    }
  }
  JOINT LeftUpLeg
  {
    OFFSET 8.9458 -8.66707 0.101652
    CHANNELS 3 Zrotation Xrotation Yrotation
    JOINT LeftLeg
    {
      OFFSET 0 -44.4227 1.3727
      CHANNELS 3 Zrotation Xrotation Yrotation
      JOINT LeftFoot
      {
        OFFSET -0.253549 -42.0924 -1.46059
        CHANNELS 3 Zrotation Xrotation Yrotation
        JOINT LeftToes
        {
          OFFSET -0.04 -4.41509 8.4991
          CHANNELS 3 Zrotation Xrotation Yrotation
          End Site
          {
            OFFSET 0.08 -0.047448 9.77979
          }
        }
      }
    }
  }
}
MOTION
Frames:	20
Frame Time:	0.0166667
37.5082 95.5878 2.15273 0.91047 -1.39588 -60.8486 -19.9874 -21.8759 7.23965 13.573 43.5845 -5.75473 13.8961 -1.73426 -0.856454 -7.93808 -23.9627 -2.31041 -0.502097 5.88785 -0.0983129 -5.01158 11.5446 0.541407 23.5467 -10.7939 -32.6559 -1.59028e-015 -2.38542e-015 3.18055e-015 -65.6729 7.13787 -27.2358 -13.6918 41.7069 -113.113 6.54677 9.62745 -1.04006 18.2749 -1.88447 -11.6052 111.291 -50.6781 88.2067 -13.6179 36.8116 157.08 -17.8153 11.2697 -13.5754 10.5677 -4.18417 -2.61483 -10.1985 30.1147 2.25216 -1.01948 20.4221 0.110476 62.5162 -68.0211 36.7669 
37.5015 95.2062 1.13338 0.650366 -1.27921 -60.2421 -20.7666 -22.5899 6.45638 15.4577 44.8524 -5.53717 13.9419 -2.98251 -0.714728 -8.04825 -24.3096 -2.32973 -0.70506 5.91454 -0.227573 -5.02964 11.624 0.231164 23.3782 -9.58474 -32.0671 -3.18055e-015 -2.38542e-015 -3.18055e-015 -65.0277 7.56689 -29.4445 -13.3023 41.7369 -114.031 6.54677 9.62745 -1.04006 19.3106 -2.19267 -12.5982 109.559 -50.3234 84.9674 -13.4943 37.0093 157.33 -19.0791 11.1404 -12.1187 10.8207 -3.83682 -3.23299 -9.79385 29.4688 5.34908 2.76978 19.7036 -0.792942 65.0157 -67.0517 40.4137 
37.4251 94.8007 0.151599 0.372762 -1.21287 -59.669 -21.7641 -23.3783 5.93401 17.5024 46.0734 -6.66564 13.2712 -3.7221 -0.605739 -8.26 -24.9955 -2.35496 -0.869293 5.96179 -0.507264 -5.04247 11.7465 -0.371553 23.0803 -8.33877 -31.1124 8.82781e-032 7.95139e-016 -6.36111e-015 -64.661 7.78061 -31.7032 -12.8447 41.8791 -115.086 6.54677 9.62745 -1.04006 20.5607 -2.59016 -13.7936 106.702 -49.4759 80.5122 -13.5076 36.3747 157.932 -19.6989 11.0489 -11.3041 11.0427 -3.41153 -3.9483 -9.33304 28.8188 8.29006 6.22061 18.8894 -1.566 66.8854 -65.8093 43.6203 
37.2876 94.3751 -0.7781 0.0735321 -1.24633 -59.2158 -22.9381 -24.0895 5.80235 19.3228 46.9439 -9.10658 12.0272 -3.93872 -0.540915 -8.51807 -25.9163 -2.33499 -0.969719 6.02419 -0.873361 -5.07363 11.8944 -1.12983 22.624 -7.13835 -29.9198 1.59028e-015 -1.59028e-015 -3.18055e-015 -64.4885 7.82387 -33.9944 -12.3615 42.0591 -116.09 6.54677 9.62745 -1.04006 21.9434 -3.06346 -15.1156 102.986 -48.2038 75.3142 -13.6131 35.1191 158.691 -19.8737 11.0079 -10.9927 11.2755 -2.91921 -4.68892 -8.92996 28.2424 10.831 8.98757 18.2046 -2.14956 68.4308 -64.5226 46.511 
37.099 93.9502 -1.64453 -0.245744 -1.4037 -58.9886 -24.197 -24.6325 6.12789 20.4834 47.183 -12.4971 10.3908 -3.65995 -0.5106 -8.60832 -26.4712 -2.19149 -0.981333 6.09416 -1.26615 -5.13429 12.0459 -1.91985 21.9963 -6.0305 -28.5604 -0 0 3.18055e-015 -64.4606 7.64571 -36.2889 -11.9298 42.2592 -116.885 6.54677 9.62745 -1.04006 23.3602 -3.59264 -16.4972 98.716 -46.5288 69.855 -13.7661 33.5317 159.377 -19.8508 11.0001 -10.9536 11.5553 -2.35907 -5.37849 -8.70494 27.7799 12.8538 10.909 17.7737 -2.54119 69.8632 -63.3674 49.141 
36.8627 93.5532 -2.44192 -0.572986 -1.68138 -59.0964 -25.4097 -24.9825 6.8691 20.5708 46.6059 -16.0642 8.548 -2.93036 -0.495332 -8.25894 -25.7682 -1.89256 -0.904165 6.1584 -1.6423 -5.21876 12.1699 -2.65899 21.1965 -5.0044 -27.0376 1.59028e-015 1.59028e-015 3.18055e-015 -64.5849 7.11059 -38.5233 -11.6536 42.522 -117.349 6.54677 9.62745 -1.04006 24.7083 -4.14788 -17.8691 94.1813 -44.4323 64.5586 -13.9451 31.9038 159.789 -19.8587 10.9987 -10.9426 11.8867 -1.71938 -5.95651 -8.74324 27.4373 14.3641 12.016 17.537 -2.76211 71.088 -62.4012 51.3559 
36.5684 93.2024 -3.17403 -0.885693 -2.05369 -59.6379 -26.4275 -25.1663 7.85618 19.3024 45.1505 -18.7292 6.74631 -1.74463 -0.482416 -7.35451 -23.2307 -1.5181 -0.787005 6.19577 -1.98057 -5.30693 12.2234 -3.31838 20.2329 -3.98441 -25.2959 0 2.38542e-015 -0 -64.9139 6.04563 -40.6125 -11.6424 42.9132 -117.386 6.54677 9.62745 -1.04006 25.8949 -4.68848 -19.1505 89.6019 -41.858 59.7482 -14.1496 30.4359 159.773 -20.0604 10.9805 -10.7637 12.2334 -0.980066 -6.39773 -9.06794 27.1958 15.4773 12.4891 17.2843 -2.83783 71.7503 -61.5685 52.8534 
36.1904 92.9005 -3.85682 -1.15776 -2.47991 -60.686 -27.1192 -25.2328 8.82229 16.6489 42.8426 -19.4804 5.33704 0.0109155 -0.479362 -6.09194 -19.2248 -1.24714 -0.723115 6.17771 -2.28221 -5.37133 12.1553 -3.91738 19.1211 -2.84903 -23.2473 0 3.97569e-015 -0 -65.4998 4.3023 -42.4891 -11.9803 43.4593 -116.896 6.54677 9.62745 -1.04006 26.8511 -5.16715 -20.2526 85.1288 -38.7335 55.6486 -14.3815 29.2015 159.233 -20.5354 10.9282 -10.3021 12.5345 -0.115995 -6.72111 -9.63702 27.0169 16.3963 12.5829 16.7685 -2.79855 71.4629 -60.755 53.3644 
35.6946 92.6379 -4.51559 -1.37168 -2.90816 -62.2713 -27.4015 -25.2252 9.49441 12.9211 39.7438 -17.8179 4.68247 2.49572 -0.520213 -4.89054 -15.0209 -1.24832 -0.805356 6.07219 -2.56871 -5.38283 11.9176 -4.50565 17.8841 -1.47342 -20.8097 -1.59028e-015 -7.95139e-016 -0 -66.3365 1.81335 -44.1499 -12.6892 44.0826 -115.763 6.54677 9.62745 -1.04006 27.5384 -5.54014 -21.096 80.878 -35.0224 52.4049 -14.6273 28.1878 158.143 -21.2881 10.8301 -9.52967 12.7346 0.898049 -6.98251 -10.3585 26.8435 17.3622 12.5373 15.8233 -2.67957 70.0456 -59.8475 52.8176 
35.0512 92.4011 -5.17766 -1.5248 -3.2799 -64.3665 -27.2454 -25.173 9.71184 8.73288 35.9643 -13.938 5.00395 5.73315 -0.66799 -4.16232 -12.0568 -1.58667 -1.06875 5.85335 -2.87542 -5.31417 11.4814 -5.14201 16.5505 0.219285 -17.9443 -8.82781e-032 1.59028e-015 3.18055e-015 -67.3194 -1.36735 -45.6839 -13.6874 44.5654 -113.864 6.54677 9.62745 -1.04006 27.9495 -5.7801 -21.6368 76.9424 -30.7695 50.081 -14.8547 27.3522 156.55 -22.2717 10.6819 -8.49499 12.8043 2.07478 -7.25275 -11.1128 26.614 18.5831 12.5077 14.42 -2.51191 67.6192 -58.7792 51.3767 
34.2504 92.1783 -5.8649 -1.62477 -3.53744 -66.8813 -26.6627 -25.1089 9.50159 4.79176 31.7645 -8.57381 6.31354 9.44998 -0.999963 -4.148 -11.2287 -2.20592 -1.46077 5.51663 -3.23967 -5.14414 10.8552 -5.87861 15.1545 2.21617 -14.679 1.59028e-015 1.59028e-015 3.18055e-015 -68.2424 -5.05323 -47.2614 -14.7568 44.5703 -111.098 6.54677 9.62745 -1.04006 28.105 -5.88593 -21.8866 73.3793 -26.0968 48.6543 -15.026 26.6408 154.575 -23.4101 10.4894 -7.30498 12.7432 3.39533 -7.58997 -11.7774 26.293 20.1745 12.5419 12.6466 -2.31421 64.5179 -57.5518 49.3433 
33.294 91.9417 -6.6043 -1.67974 -3.65725 -69.6681 -25.7021 -25.1464 9.04655 1.6232 27.7606 -2.66485 8.4011 13.011 -1.54774 -4.86029 -12.6685 -2.9483 -1.93706 5.08263 -3.68985 -4.87208 10.0919 -6.75644 13.7427 4.40018 -11.1061 0 2.98177e-015 -0 -68.8315 -8.95345 -49.0906 -15.543 43.723 -107.414 6.54677 9.62745 -1.04006 28.0483 -5.88303 -21.9128 70.2078 -21.1674 48.0332 -15.1183 25.9789 152.397 -24.6089 10.2716 -6.10466 12.5697 4.79075 -8.0161 -12.2649 25.945 22.1336 12.5947 10.6233 -2.08988 61.1267 -56.2267 47.0219 
32.2143 91.6624 -7.41477 -1.68294 -3.65865 -72.5384 -24.4749 -25.465 8.55443 -0.580973 24.7538 2.94506 10.8091 15.6804 -2.21629 -6.09891 -15.8968 -3.59053 -2.47281 4.59907 -4.25017 -4.53282 9.28581 -7.80889 12.381 6.56944 -7.35403 -7.95139e-016 -1.39149e-015 -1.59028e-015 -68.7816 -12.7391 -51.3599 -15.6048 41.7216 -102.791 6.54677 9.62745 -1.04006 27.8389 -5.81078 -21.8073 67.4269 -16.1611 48.0893 -15.1413 25.271 150.232 -25.7587 10.061 -5.05659 12.3064 6.14493 -8.50486 -12.554 25.6912 24.3639 12.617 8.4863 -1.84636 57.7722 -54.8929 44.6535 
31.095 91.3853 -8.26542 -1.65386 -3.4497 -75.3627 -23.0026 -26.0192 8.15579 -1.8821 22.8843 7.6639 12.9464 17.241 -2.81976 -7.53641 -20.1449 -3.91172 -2.71216 4.18144 -4.88528 -4.11556 8.58151 -9.05832 11.1498 8.48752 -3.54674 -3.7927e-035 -3.49814e-016 -6.21202e-018 -67.7667 -16.1269 -54.1755 -14.5026 38.4323 -97.164 6.54677 9.62745 -1.04006 27.5399 -5.70208 -21.6355 65.0376 -11.2727 48.6812 -15.1423 24.4216 148.303 -26.7421 9.8996 -4.31825 12.0983 7.39063 -9.03492 -12.6879 25.5 26.8137 12.6414 6.46185 -1.61534 54.6962 -53.6358 42.4214 
30.0166 91.1159 -9.14154 -1.58785 -3.06571 -77.9905 -21.4378 -26.7545 7.80212 -2.46309 22.1298 11.2545 14.3983 17.7819 -3.2023 -8.84622 -24.6688 -3.76935 -2.69849 3.90448 -5.61578 -3.66547 8.10366 -10.526 10.1182 9.94482 0.231104 -1.59028e-015 -9.44227e-016 -7.95139e-016 -58.0664 -14.072 -57.0445 -10.8231 25.6636 -90.8325 6.54677 9.62745 -1.04006 27.2019 -5.56742 -21.397 63.0606 -6.70929 49.6613 -15.1954 23.3657 146.792 -27.45 9.82802 -4.01247 12.0303 8.42346 -9.55007 -12.7994 25.4425 29.3673 12.7674 4.70552 -1.42559 52.0602 -52.5176 40.4699 
29.0328 90.8513 -10.0297 -1.4916 -2.55537 -80.3503 -19.8884 -27.6127 7.35879 -2.55557 22.2528 13.8358 15.0605 17.6342 -3.33228 -9.80238 -28.9227 -3.13452 -2.51084 3.81161 -6.45088 -3.20716 7.9408 -12.2142 9.30809 10.8083 3.94811 -0 -3.08116e-015 -0 -44.9634 -11.5413 -59.9057 -6.90294 10.7719 -80.8334 6.54677 9.62745 -1.04006 26.8492 -5.39305 -21.0263 61.5392 -2.6681 50.8764 -15.3727 22.0946 145.793 -27.8066 9.86999 -4.19361 12.1801 9.18652 -9.99901 -13.0455 25.5745 31.9365 13.1075 3.31183 -1.29543 49.9442 -51.573 38.8937 
28.1703 90.5897 -10.908 -1.37526 -1.96085 -82.4616 -18.3903 -28.5634 6.71424 -2.39335 22.9414 15.7367 15.1003 17.1863 -3.28491 -10.3121 -32.5842 -2.07903 -2.20814 3.91369 -7.37483 -2.7321 8.1261 -14.0898 8.67173 11.043 7.61009 7.95139e-016 8.94531e-016 3.18055e-015 -29.9119 -9.59168 -62.2702 -2.64186 -3.81001 -66.6146 6.54677 9.62745 -1.04006 26.4763 -5.15434 -20.4358 60.5231 0.700196 52.1738 -15.7123 20.6704 145.281 -27.7937 10.019 -4.82208 12.5787 9.67874 -10.3414 -13.539 25.9119 34.4601 13.7306 2.30675 -1.22968 48.3383 -50.8118 37.7073 
27.4303 90.3353 -11.746 -1.24149 -1.31385 -84.413 -16.9187 -29.6097 5.85834 -2.17497 23.9354 17.3178 14.7888 16.7309 -3.16078 -10.3948 -35.4954 -0.742086 -1.81077 4.1922 -8.3375 -2.21132 8.62893 -16.0705 8.10064 10.703 11.2185 -2.20695e-032 -1.98785e-016 -6.36111e-015 -15.5356 -8.92675 -63.3679 2.04229 -14.6089 -48.9704 6.54677 9.62745 -1.04006 26.0611 -4.83709 -19.578 60.0289 3.32706 53.4171 -16.1987 19.2251 145.129 -27.467 10.2367 -5.75909 13.1868 9.94621 -10.5569 -14.305 26.429 36.8803 14.6098 1.65175 -1.21999 47.1533 -50.2262 36.8356 
26.8023 90.1055 -12.5073 -1.08317 -0.656029 -86.2988 -15.4535 -30.7335 4.8838 -2.02958 25.0189 18.8281 14.3709 16.4087 -3.03264 -10.1378 -37.574 0.700973 -1.34361 4.60094 -9.27392 -1.62987 9.35995 -18.0215 7.46673 9.90335 14.7207 9.93923e-016 -2.98177e-016 -6.36111e-015 -4.4102 -9.5505 -62.8094 6.01208 -18.9267 -30.892 6.54677 9.62745 -1.04006 25.5898 -4.45595 -18.4964 59.995 5.24718 54.5043 -16.7684 17.9318 145.146 -26.9562 10.4666 -6.79093 13.8917 10.0561 -10.6571 -15.2787 27.0582 39.1029 15.6291 1.27852 -1.25119 46.2574 -49.7991 36.1452 
26.2642 89.9239 -13.1633 -0.8924 -0.045699 -88.1769 -14.0114 -31.8804 3.93966 -2.00441 26.0396 20.3683 13.992 16.1864 -2.92666 -9.65923 -38.7528 2.05836 -0.849715 5.07535 -10.1083 -1.01255 10.197 -19.7697 6.67498 8.78979 17.9864 -9.93923e-017 4.72114e-016 -0 2.47045 -10.9706 -60.963 7.62257 -17.6491 -16.1595 6.54677 9.62745 -1.04006 25.0784 -4.05709 -17.3325 60.2632 6.59075 55.3775 -17.3338 16.9541 145.141 -26.4351 10.655 -7.68232 14.539 10.077 -10.6972 -16.3356 27.7096 41.0009 16.6143 1.12411 -1.30637 45.5289 -49.5133 35.505 
